<svg xmlns="http://www.w3.org/2000/svg" viewBox="0 0 900 414" fill="none">
  <g stroke="#d4d8dd" stroke-width="0.8" fill="#eef1f5">
    <!-- North America -->
    <path d="M150,60 L180,55 L210,50 L240,55 L260,65 L270,80 L265,100 L250,120 L240,140 L220,155 L200,160 L180,155 L165,145 L155,130 L140,120 L130,100 L135,80 Z"/>
    <!-- USA -->
    <path d="M130,80 L155,75 L180,70 L210,72 L235,80 L250,95 L245,115 L230,130 L215,140 L195,145 L175,140 L160,130 L145,115 L135,100 Z"/>
    <!-- Mexico -->
    <path d="M140,145 L160,140 L175,145 L185,155 L180,170 L170,180 L155,178 L145,168 L138,155 Z"/>
    <!-- Central America -->
    <path d="M170,180 L180,175 L185,185 L180,195 L175,200 L168,195 L165,188 Z"/>
    <!-- South America -->
    <path d="M195,210 L215,205 L235,215 L245,235 L250,260 L248,285 L240,310 L225,330 L210,340 L195,335 L185,315 L180,290 L178,265 L180,240 L185,220 Z"/>
    <!-- Brazil -->
    <path d="M210,230 L230,225 L245,235 L250,255 L248,275 L240,290 L225,295 L210,285 L200,265 L198,245 Z"/>
    <!-- Argentina/Chile -->
    <path d="M195,300 L210,295 L220,310 L215,330 L205,345 L195,350 L188,340 L185,320 Z"/>
    <!-- Greenland -->
    <path d="M270,30 L300,25 L325,30 L335,45 L330,60 L315,65 L295,60 L280,50 L275,38 Z"/>
    <!-- Iceland -->
    <path d="M340,55 L350,52 L358,56 L355,64 L346,66 L340,62 Z"/>
    <!-- UK/Ireland -->
    <path d="M395,72 L402,68 L408,72 L406,80 L400,84 L394,80 Z"/>
    <path d="M410,75 L415,72 L420,76 L418,82 L412,84 L408,80 Z"/>
    <!-- Scandinavia -->
    <path d="M435,40 L445,35 L455,38 L460,48 L458,60 L450,70 L440,75 L432,65 L430,52 Z"/>
    <path d="M460,30 L475,25 L485,30 L488,45 L482,58 L470,62 L462,52 L458,40 Z"/>
    <!-- Western Europe -->
    <path d="M420,85 L435,82 L445,88 L448,100 L442,112 L430,118 L420,112 L415,100 Z"/>
    <!-- Central Europe -->
    <path d="M445,75 L465,72 L478,78 L482,92 L476,105 L462,110 L450,105 L442,92 Z"/>
    <!-- Eastern Europe -->
    <path d="M480,55 L510,48 L535,52 L545,65 L540,82 L525,90 L505,88 L490,80 L482,68 Z"/>
    <!-- Italy -->
    <path d="M458,115 L465,112 L470,118 L468,130 L462,138 L456,132 L455,122 Z"/>
    <!-- Iberian Peninsula -->
    <path d="M405,100 L420,96 L430,102 L428,115 L418,120 L406,116 L402,108 Z"/>
    <!-- North Africa -->
    <path d="M400,140 L430,135 L460,138 L480,142 L500,148 L505,160 L495,170 L470,175 L440,172 L415,168 L400,158 L398,148 Z"/>
    <!-- West Africa -->
    <path d="M400,175 L420,170 L435,175 L440,190 L435,205 L420,212 L405,208 L395,195 L395,185 Z"/>
    <!-- Central Africa -->
    <path d="M450,180 L475,175 L495,182 L500,200 L495,218 L480,225 L460,222 L448,208 L445,192 Z"/>
    <!-- East Africa -->
    <path d="M505,185 L520,180 L532,188 L535,205 L528,220 L515,228 L502,222 L498,205 L500,192 Z"/>
    <!-- Southern Africa -->
    <path d="M470,235 L490,230 L505,238 L508,260 L500,280 L485,290 L470,285 L462,268 L465,250 Z"/>
    <!-- Middle East -->
    <path d="M510,115 L540,108 L560,115 L568,130 L560,145 L540,150 L520,145 L508,132 Z"/>
    <!-- Central Asia -->
    <path d="M545,65 L580,58 L610,62 L625,75 L620,92 L600,100 L575,98 L555,90 L548,78 Z"/>
    <!-- Russia -->
    <path d="M500,30 L560,20 L640,18 L720,25 L780,35 L800,50 L790,68 L760,78 L720,82 L680,80 L640,75 L600,68 L560,60 L530,52 L510,42 Z"/>
    <!-- South Asia/India -->
    <path d="M590,115 L615,108 L635,118 L640,140 L630,160 L615,170 L600,165 L588,150 L585,132 Z"/>
    <!-- Sri Lanka -->
    <path d="M618,172 L624,170 L626,176 L622,180 L618,178 Z"/>
    <!-- Southeast Asia -->
    <path d="M645,130 L670,125 L690,132 L695,148 L685,162 L668,168 L652,162 L642,148 Z"/>
    <!-- China -->
    <path d="M640,70 L680,62 L720,68 L745,82 L740,100 L720,112 L695,118 L670,115 L650,105 L640,90 Z"/>
    <!-- Mongolia -->
    <path d="M660,55 L695,50 L720,55 L725,68 L715,78 L690,82 L665,78 L655,68 Z"/>
    <!-- Korea -->
    <path d="M748,80 L756,76 L762,82 L758,92 L750,96 L744,90 Z"/>
    <!-- Japan -->
    <path d="M770,72 L778,68 L785,74 L783,88 L778,98 L772,95 L768,85 Z"/>
    <!-- Indonesia -->
    <path d="M660,195 L680,192 L700,195 L720,200 L730,208 L720,215 L700,218 L680,215 L665,210 L658,202 Z"/>
    <!-- Philippines -->
    <path d="M720,150 L730,145 L738,150 L735,165 L728,172 L720,168 L718,158 Z"/>
    <!-- Australia -->
    <path d="M700,260 L740,252 L775,258 L790,275 L785,298 L770,312 L745,318 L720,315 L700,305 L692,285 Z"/>
    <!-- New Zealand -->
    <path d="M810,310 L818,306 L822,312 L820,324 L814,330 L808,325 Z"/>
    <!-- Papua New Guinea -->
    <path d="M760,218 L778,215 L790,220 L788,232 L778,238 L765,235 L758,228 Z"/>
    <!-- Taiwan -->
    <path d="M740,125 L746,122 L750,126 L748,134 L742,136 L738,132 Z"/>
  </g>
</svg>